<?xml version="1.0" encoding="UTF-8" standalone="no"?>
<svg
   xmlns:dc="http://purl.org/dc/elements/1.1/"
   xmlns:cc="http://creativecommons.org/ns#"
   xmlns:rdf="http://www.w3.org/1999/02/22-rdf-syntax-ns#"
   xmlns:svg="http://www.w3.org/2000/svg"
   xmlns="http://www.w3.org/2000/svg"
   xmlns:xlink="http://www.w3.org/1999/xlink"
   xmlns:sodipodi="http://sodipodi.sourceforge.net/DTD/sodipodi-0.dtd"
   xmlns:inkscape="http://www.inkscape.org/namespaces/inkscape"
   width="210mm"
   height="297mm"
   viewBox="0 0 210 297"
   version="1.1"
   id="svg14488"
   sodipodi:docname="logo_only.svg"
   inkscape:version="1.0.1 (c497b03c, 2020-09-10)">
  <defs
     id="defs14482">
    <path
       d="M514.73 -337.2C542.33 -337.12 564.67 -314.65 564.59 -287.06C564.51 -259.46 542.04 -237.12 514.44 -237.21C486.84 -237.29 464.51 -259.76 464.59 -287.35C464.67 -314.95 487.14 -337.29 514.73 -337.2Z"
       id="a20afVWfbU" />
    <path
       d="M514.71 -328.73C537.63 -328.66 556.18 -310 556.11 -287.08C556.05 -264.16 537.38 -245.61 514.46 -245.68C491.55 -245.75 472.99 -264.41 473.06 -287.33C473.13 -310.25 491.79 -328.8 514.71 -328.73Z"
       id="a15wEiVZ8e" />
    <path
       d="M514.64 -303.89C523.84 -303.86 531.3 -296.36 531.27 -287.16C531.24 -277.95 523.75 -270.49 514.54 -270.52C505.33 -270.55 497.88 -278.05 497.9 -287.25C497.93 -296.46 505.43 -303.92 514.64 -303.89Z"
       id="d5KIuyxWGk" />
    <path
       d="M518.74 -260.49C518.74 -258.15 516.84 -256.26 514.5 -256.27C513.65 -256.27 515.34 -256.27 514.5 -256.27C512.16 -256.28 510.26 -258.18 510.27 -260.52C510.28 -263.81 510.3 -269.46 510.31 -272.76C510.31 -275.1 512.22 -276.99 514.56 -276.98C515.4 -276.98 513.71 -276.99 514.56 -276.98C516.9 -276.98 518.79 -275.07 518.78 -272.73C518.77 -269.44 518.75 -263.79 518.74 -260.49Z"
       id="a3fOc8Hoks" />
    <path
       d="M356.13 -288.28C356.21 -315.88 378.68 -338.22 406.28 -338.14C433.87 -338.06 456.21 -315.59 456.13 -287.99C456.05 -260.4 433.58 -238.06 405.99 -238.14C378.39 -238.22 356.05 -260.69 356.13 -288.28Z"
       id="ad3F6mqFf" />
    <path
       d="M364.61 -288.26C364.67 -311.18 383.33 -329.73 406.25 -329.67C429.17 -329.6 447.73 -310.94 447.66 -288.02C447.59 -265.1 428.93 -246.54 406.01 -246.61C383.09 -246.68 364.54 -265.34 364.61 -288.26Z"
       id="a9YE7Vkqk" />
    <path
       d="M389.45 -288.19C389.48 -297.4 396.97 -304.85 406.18 -304.82C415.39 -304.8 422.84 -297.3 422.82 -288.09C422.79 -278.88 415.29 -271.43 406.08 -271.45C396.88 -271.48 389.42 -278.98 389.45 -288.19Z"
       id="c1z8VVQbS" />
    <path
       d="M432.84 -292.3C435.18 -292.29 437.07 -290.39 437.07 -288.05C437.06 -287.2 437.07 -288.9 437.07 -288.05C437.06 -285.71 435.16 -283.82 432.82 -283.82C429.52 -283.83 423.87 -283.85 420.58 -283.86C418.24 -283.87 416.35 -285.77 416.35 -288.11C416.36 -288.96 416.35 -287.26 416.35 -288.11C416.36 -290.45 418.26 -292.34 420.6 -292.33C423.9 -292.32 429.55 -292.31 432.84 -292.3Z"
       id="b3h9xbfyz" />
    <path
       d="M405.99 -129.69C378.39 -129.77 356.05 -152.24 356.13 -179.83C356.21 -207.43 378.68 -229.77 406.28 -229.68C433.87 -229.6 456.21 -207.13 456.13 -179.54C456.05 -151.94 433.58 -129.6 405.99 -129.69Z"
       id="a7PQT4zivD" />
    <path
       d="M406.01 -138.16C383.09 -138.23 364.54 -156.89 364.61 -179.81C364.67 -202.73 383.33 -221.28 406.25 -221.21C429.17 -221.14 447.73 -202.48 447.66 -179.56C447.59 -156.64 428.93 -138.09 406.01 -138.16Z"
       id="b1P7USGKU" />
    <path
       d="M406.08 -163C396.88 -163.03 389.42 -170.53 389.45 -179.73C389.48 -188.94 396.97 -196.4 406.18 -196.37C415.39 -196.34 422.84 -188.84 422.82 -179.64C422.79 -170.43 415.29 -162.97 406.08 -163Z"
       id="b1KVWDP7t" />
    <path
       d="M401.97 -206.4C401.98 -208.73 403.88 -210.63 406.22 -210.62C407.07 -210.62 405.38 -210.62 406.22 -210.62C408.56 -210.61 410.45 -208.71 410.45 -206.37C410.44 -203.08 410.42 -197.43 410.41 -194.13C410.4 -191.79 408.5 -189.9 406.16 -189.91C405.32 -189.91 407.01 -189.9 406.16 -189.91C403.82 -189.91 401.93 -191.82 401.94 -194.16C401.95 -197.45 401.96 -203.1 401.97 -206.4Z"
       id="d3EzOMDoP" />
    <path
       d="M564.59 -179.54C564.51 -151.94 542.04 -129.6 514.44 -129.69C486.84 -129.77 464.51 -152.24 464.59 -179.83C464.67 -207.43 487.14 -229.77 514.73 -229.68C542.33 -229.6 564.67 -207.13 564.59 -179.54Z"
       id="bSHrc81SC" />
    <path
       d="M556.11 -179.56C556.05 -156.64 537.38 -138.09 514.46 -138.16C491.55 -138.23 472.99 -156.89 473.06 -179.81C473.13 -202.73 491.79 -221.28 514.71 -221.21C537.63 -221.14 556.18 -202.48 556.11 -179.56Z"
       id="f4tkTK7k9a" />
    <path
       d="M531.27 -179.64C531.24 -170.43 523.75 -162.97 514.54 -163C505.33 -163.03 497.88 -170.53 497.9 -179.73C497.93 -188.94 505.43 -196.4 514.64 -196.37C523.84 -196.34 531.3 -188.84 531.27 -179.64Z"
       id="b4aY4icdLV" />
    <path
       d="M487.88 -175.53C485.54 -175.53 483.64 -177.44 483.65 -179.78C483.65 -180.62 483.65 -178.93 483.65 -179.78C483.66 -182.12 485.56 -184.01 487.9 -184C491.2 -183.99 496.84 -183.97 500.14 -183.96C502.48 -183.96 504.37 -182.05 504.36 -179.71C504.36 -178.87 504.37 -180.56 504.36 -179.71C504.36 -177.37 502.45 -175.48 500.12 -175.49C496.82 -175.5 491.17 -175.52 487.88 -175.53Z"
       id="eUQJFSlvn" />
    <path
       d="M-222.15 47.08C-202.69 66.65 -202.78 98.34 -222.35 117.79C-241.92 137.25 -273.61 137.16 -293.07 117.59C-312.52 98.02 -312.43 66.33 -292.86 46.88C-273.29 27.42 -241.6 27.51 -222.15 47.08Z"
       id="b9FDxReB2x" />
    <path
       d="M-228.16 53.06C-212 69.31 -212.08 95.63 -228.33 111.78C-244.58 127.94 -270.9 127.87 -287.06 111.61C-303.22 95.36 -303.14 69.04 -286.88 52.89C-270.63 36.73 -244.32 36.8 -228.16 53.06Z"
       id="j2xOWToCju" />
    <path
       d="M-245.77 70.57C-239.28 77.1 -239.31 87.67 -245.84 94.17C-252.37 100.66 -262.95 100.63 -269.44 94.1C-275.93 87.57 -275.9 77 -269.37 70.5C-262.84 64.01 -252.27 64.04 -245.77 70.57Z"
       id="aZEOBbG2K" />
    <path
       d="M-273.55 104.16C-275.21 105.81 -277.89 105.8 -279.54 104.15C-280.14 103.54 -278.95 104.75 -279.54 104.15C-281.19 102.49 -281.19 99.8 -279.53 98.15C-277.19 95.83 -273.18 91.85 -270.85 89.52C-269.19 87.87 -266.51 87.88 -264.86 89.54C-264.26 90.14 -265.45 88.94 -264.86 89.54C-263.21 91.2 -263.21 93.88 -264.87 95.53C-267.21 97.86 -271.22 101.84 -273.55 104.16Z"
       id="aPwiDwvWQ" />
    <path
       d="M-401.31 45.94C-381.74 26.49 -350.06 26.58 -330.6 46.15C-311.15 65.72 -311.24 97.4 -330.81 116.86C-350.38 136.32 -382.06 136.22 -401.52 116.65C-420.97 97.08 -420.88 65.4 -401.31 45.94Z"
       id="czXgLNlRM" />
    <path
       d="M-395.34 51.95C-379.08 35.79 -352.77 35.87 -336.61 52.12C-320.45 68.38 -320.53 94.69 -336.78 110.85C-353.04 127.01 -379.35 126.93 -395.51 110.68C-411.67 94.43 -411.59 68.11 -395.34 51.95Z"
       id="b3QMn5fy0g" />
    <path
       d="M-377.82 69.57C-371.29 63.08 -360.72 63.11 -354.23 69.64C-347.74 76.17 -347.77 86.74 -354.3 93.23C-360.83 99.73 -371.4 99.69 -377.89 93.16C-384.38 86.63 -384.35 76.06 -377.82 69.57Z"
       id="aMmDdwAuh" />
    <path
       d="M-344.23 97.35C-342.58 99.01 -342.59 101.69 -344.25 103.34C-344.85 103.94 -343.65 102.74 -344.25 103.34C-345.91 104.99 -348.59 104.98 -350.24 103.32C-352.56 100.99 -356.55 96.98 -358.87 94.64C-360.52 92.98 -360.51 90.3 -358.85 88.65C-358.25 88.05 -359.45 89.25 -358.85 88.65C-357.19 87 -354.51 87.01 -352.86 88.67C-350.54 91.01 -346.56 95.01 -344.23 97.35Z"
       id="c2YlqVhwdh" />
    <path
       d="M-401.52 225.11C-420.97 205.54 -420.88 173.85 -401.31 154.4C-381.74 134.94 -350.06 135.03 -330.6 154.6C-311.15 174.17 -311.24 205.86 -330.81 225.31C-350.38 244.77 -382.06 244.68 -401.52 225.11Z"
       id="i2jo8XV2RE" />
    <path
       d="M-395.51 219.13C-411.67 202.88 -411.59 176.56 -395.34 160.41C-379.08 144.25 -352.77 144.32 -336.61 160.58C-320.45 176.83 -320.53 203.15 -336.78 219.3C-353.04 235.46 -379.35 235.39 -395.51 219.13Z"
       id="ebRwubBST" />
    <path
       d="M-377.89 201.62C-384.38 195.09 -384.35 184.52 -377.82 178.02C-371.29 171.53 -360.72 171.56 -354.23 178.09C-347.74 184.62 -347.77 195.19 -354.3 201.69C-360.83 208.18 -371.4 208.15 -377.89 201.62Z"
       id="bnjsZFsYN" />
    <path
       d="M-350.11 168.03C-348.45 166.38 -345.77 166.39 -344.12 168.05C-343.52 168.65 -344.72 167.44 -344.12 168.05C-342.47 169.7 -342.48 172.39 -344.14 174.04C-346.48 176.36 -350.48 180.34 -352.82 182.67C-354.48 184.32 -357.16 184.31 -358.81 182.65C-359.41 182.05 -358.21 183.25 -358.81 182.65C-360.46 180.99 -360.45 178.31 -358.79 176.66C-356.46 174.33 -352.45 170.35 -350.11 168.03Z"
       id="b1fREGFzg" />
    <path
       d="M-222.35 225.31C-241.92 244.77 -273.61 244.68 -293.07 225.11C-312.52 205.54 -312.43 173.85 -292.86 154.4C-273.29 134.94 -241.6 135.03 -222.15 154.6C-202.69 174.17 -202.78 205.86 -222.35 225.31Z"
       id="bfUCdmi6N" />
    <path
       d="M-228.33 219.3C-244.58 235.46 -270.9 235.39 -287.06 219.13C-303.22 202.88 -303.14 176.56 -286.88 160.41C-270.63 144.25 -244.32 144.32 -228.16 160.58C-212 176.83 -212.08 203.15 -228.33 219.3Z"
       id="a2utqzKCXs" />
    <path
       d="M-245.84 201.69C-252.37 208.18 -262.95 208.15 -269.44 201.62C-275.93 195.09 -275.9 184.52 -269.37 178.02C-262.84 171.53 -252.27 171.56 -245.77 178.09C-239.28 184.62 -239.31 195.19 -245.84 201.69Z"
       id="a2cRCmid9N" />
    <path
       d="M-279.43 173.91C-281.08 172.25 -281.08 169.57 -279.42 167.92C-278.82 167.32 -280.02 168.51 -279.42 167.92C-277.76 166.27 -275.07 166.28 -273.43 167.93C-271.1 170.27 -267.12 174.28 -264.8 176.61C-263.15 178.27 -263.15 180.96 -264.81 182.61C-265.41 183.2 -264.21 182.01 -264.81 182.61C-266.47 184.26 -269.16 184.25 -270.81 182.59C-273.13 180.25 -277.11 176.25 -279.43 173.91Z"
       id="gqPqARVEG" />
    <path
       d="M-308.4 608.59C-336 608.51 -358.34 586.04 -358.26 558.44C-358.18 530.85 -335.71 508.51 -308.11 508.59C-280.52 508.67 -258.18 531.14 -258.26 558.74C-258.34 586.33 -280.81 608.67 -308.4 608.59Z"
       id="az1o9aF1Y" />
    <path
       d="M-308.38 600.12C-331.3 600.05 -349.85 581.39 -349.78 558.47C-349.72 535.55 -331.05 517 -308.14 517.06C-285.22 517.13 -266.66 535.79 -266.73 558.71C-266.8 581.63 -285.46 600.18 -308.38 600.12Z"
       id="a1evSX7vCx" />
    <path
       d="M-308.31 575.27C-317.51 575.25 -324.97 567.75 -324.94 558.54C-324.91 549.33 -317.42 541.88 -308.21 541.9C-299 541.93 -291.55 549.43 -291.57 558.64C-291.6 567.85 -299.1 575.3 -308.31 575.27Z"
       id="g6CjJ6Tsp" />
    <path
       d="M-312.42 531.88C-312.41 529.54 -310.51 527.65 -308.17 527.65C-307.32 527.66 -309.01 527.65 -308.17 527.65C-305.83 527.66 -303.94 529.56 -303.94 531.9C-303.95 535.2 -303.97 540.85 -303.98 544.14C-303.98 546.48 -305.89 548.37 -308.23 548.37C-309.07 548.36 -307.38 548.37 -308.23 548.37C-310.57 548.36 -312.46 546.46 -312.45 544.12C-312.44 540.82 -312.43 535.17 -312.42 531.88Z"
       id="b2XMdkzm1T" />
    <path
       d="M-180.91 482.71C-180.99 510.3 -203.46 532.64 -231.05 532.56C-258.65 532.48 -280.99 510.01 -280.91 482.41C-280.83 454.82 -258.36 432.48 -230.76 432.56C-203.17 432.64 -180.83 455.11 -180.91 482.71Z"
       id="c1JTd7d644" />
    <path
       d="M-189.38 482.68C-189.45 505.6 -208.11 524.15 -231.03 524.09C-253.95 524.02 -272.5 505.36 -272.43 482.44C-272.37 459.52 -253.71 440.97 -230.79 441.03C-207.87 441.1 -189.31 459.76 -189.38 482.68Z"
       id="c5kLJSMaaN" />
    <path
       d="M-214.22 482.61C-214.25 491.82 -221.75 499.27 -230.96 499.25C-240.17 499.22 -247.62 491.72 -247.59 482.51C-247.57 473.3 -240.07 465.85 -230.86 465.88C-221.65 465.9 -214.2 473.4 -214.22 482.61Z"
       id="c2IPxW6E7" />
    <path
       d="M-257.62 486.72C-259.96 486.71 -261.85 484.81 -261.84 482.47C-261.84 481.62 -261.85 483.32 -261.84 482.47C-261.84 480.13 -259.93 478.24 -257.59 478.25C-254.3 478.26 -248.65 478.27 -245.35 478.28C-243.01 478.29 -241.12 480.19 -241.13 482.53C-241.13 483.38 -241.13 481.68 -241.13 482.53C-241.14 484.87 -243.04 486.76 -245.38 486.76C-248.67 486.75 -254.32 486.73 -257.62 486.72Z"
       id="bz9Kus6Be" />
    <path
       d="M-307.45 355.87C-279.85 355.95 -257.52 378.42 -257.6 406.02C-257.68 433.61 -280.15 455.95 -307.74 455.87C-335.34 455.79 -357.68 433.32 -357.6 405.73C-357.52 378.13 -335.05 355.79 -307.45 355.87Z"
       id="a1dXdeeX4b" />
    <path
       d="M-307.48 364.35C-284.56 364.41 -266 383.07 -266.07 405.99C-266.14 428.91 -284.8 447.47 -307.72 447.4C-330.64 447.33 -349.19 428.67 -349.12 405.75C-349.06 382.83 -330.39 364.28 -307.48 364.35Z"
       id="a5gSwUz2kL" />
    <path
       d="M-307.55 389.19C-298.34 389.21 -290.89 396.71 -290.91 405.92C-290.94 415.13 -298.44 422.58 -307.65 422.56C-316.85 422.53 -324.31 415.03 -324.28 405.82C-324.25 396.62 -316.76 389.16 -307.55 389.19Z"
       id="bmRCC7c3d" />
    <path
       d="M-303.44 432.58C-303.45 434.92 -305.35 436.81 -307.69 436.81C-308.53 436.8 -306.84 436.81 -307.69 436.81C-310.03 436.8 -311.92 434.9 -311.91 432.56C-311.9 429.26 -311.89 423.61 -311.88 420.32C-311.87 417.98 -309.97 416.09 -307.63 416.09C-306.78 416.1 -308.47 416.09 -307.63 416.09C-305.29 416.1 -303.4 418 -303.4 420.34C-303.41 423.64 -303.43 429.29 -303.44 432.58Z"
       id="a2uRtwoN0I" />
    <path
       d="M-434.28 482.41C-434.2 454.82 -411.73 432.48 -384.14 432.56C-356.54 432.64 -334.2 455.11 -334.29 482.71C-334.37 510.3 -356.84 532.64 -384.43 532.56C-412.03 532.48 -434.37 510.01 -434.28 482.41Z"
       id="a3ZRzZ64YD" />
    <path
       d="M-425.81 482.44C-425.74 459.52 -407.08 440.97 -384.16 441.03C-361.24 441.1 -342.69 459.76 -342.76 482.68C-342.83 505.6 -361.49 524.15 -384.41 524.09C-407.33 524.02 -425.88 505.36 -425.81 482.44Z"
       id="f3vQQVL1Es" />
    <path
       d="M-400.97 482.51C-400.94 473.3 -393.44 465.85 -384.24 465.88C-375.03 465.9 -367.57 473.4 -367.6 482.61C-367.63 491.82 -375.13 499.27 -384.33 499.25C-393.54 499.22 -401 491.72 -400.97 482.51Z"
       id="bAFnb7l7s" />
    <path
       d="M-357.57 478.4C-355.23 478.41 -353.34 480.31 -353.35 482.65C-353.35 483.5 -353.35 481.8 -353.35 482.65C-353.36 484.99 -355.26 486.88 -357.6 486.88C-360.89 486.87 -366.54 486.85 -369.84 486.84C-372.18 486.83 -374.07 484.93 -374.06 482.59C-374.06 481.74 -374.07 483.44 -374.06 482.59C-374.06 480.25 -372.15 478.36 -369.81 478.37C-366.52 478.38 -360.87 478.39 -357.57 478.4Z"
       id="a2i4Vds2j1" />
    <path
       d="M408.08 545.35C370.44 593.14 301.08 601.37 253.3 563.73C205.51 526.09 197.28 456.73 234.92 408.94C272.56 361.16 341.92 352.92 389.71 390.57C437.49 428.21 445.73 497.57 408.08 545.35Z"
       id="a1IvWkxwaT" />
    <path
       d="M393.41 533.79C362.15 573.48 304.54 580.32 264.86 549.06C225.17 517.79 218.33 460.19 249.59 420.5C280.86 380.81 338.46 373.97 378.15 405.24C417.84 436.5 424.68 494.11 393.41 533.79Z"
       id="aKZMCxcdz" />
    <path
       d="M350.39 499.91C337.83 515.85 314.69 518.6 298.74 506.04C282.8 493.48 280.05 470.33 292.61 454.39C305.17 438.44 328.32 435.7 344.26 448.26C360.21 460.82 362.96 483.96 350.39 499.91Z"
       id="dRXu2r3Ak" />
    <path
       d="M273.39 442C269.75 438.34 269.77 432.42 273.43 428.79C274.75 427.47 272.1 430.1 273.43 428.79C277.08 425.15 283 425.17 286.63 428.83C291.75 433.98 300.53 442.81 305.65 447.96C309.29 451.62 309.27 457.53 305.62 461.17C304.29 462.48 306.94 459.85 305.62 461.17C301.96 464.8 296.04 464.79 292.41 461.13C287.29 455.98 278.51 447.15 273.39 442Z"
       id="a1qEnqRuCA" />
    <path
       d="M570.17 231.84C613.06 274.98 612.86 344.83 569.72 387.72C526.58 430.61 456.73 430.4 413.84 387.26C370.96 344.12 371.16 274.28 414.3 231.39C457.44 188.5 527.29 188.7 570.17 231.84Z"
       id="lEgpEBdBu" />
    <path
       d="M556.93 245.01C592.55 280.84 592.38 338.85 556.55 374.47C520.72 410.09 462.71 409.92 427.09 374.09C391.47 338.26 391.64 280.25 427.47 244.63C463.3 209.01 521.31 209.18 556.93 245.01Z"
       id="fu3GSRJEW" />
    <path
       d="M518.09 283.62C532.4 298.02 532.33 321.32 517.94 335.64C503.54 349.95 480.24 349.88 465.93 335.48C451.62 321.09 451.68 297.78 466.08 283.47C480.47 269.16 503.78 269.23 518.09 283.62Z"
       id="b3GQekXkkK" />
    <path
       d="M456.86 357.67C453.2 361.31 447.29 361.29 443.65 357.63C442.33 356.31 444.97 358.96 443.65 357.63C440.01 353.97 440.03 348.06 443.69 344.42C448.84 339.3 457.67 330.52 462.82 325.4C466.48 321.76 472.39 321.78 476.03 325.44C477.35 326.76 474.71 324.12 476.03 325.44C479.67 329.1 479.65 335.01 475.99 338.65C470.84 343.77 462.01 352.55 456.86 357.67Z"
       id="b1UAkXH3Q6" />
    <path
       d="M245.25 62.34C288.39 19.45 358.23 19.65 401.12 62.79C444.01 105.93 443.81 175.78 400.67 218.67C357.53 261.55 287.68 261.35 244.79 218.21C201.91 175.07 202.11 105.23 245.25 62.34Z"
       id="ceFkvthWr" />
    <path
       d="M258.42 75.58C294.25 39.96 352.26 40.13 387.88 75.96C423.5 111.79 423.33 169.8 387.5 205.42C351.67 241.04 293.66 240.87 258.04 205.04C222.42 169.21 222.59 111.2 258.42 75.58Z"
       id="bxpcH0N40" />
    <path
       d="M297.03 114.42C311.42 100.11 334.73 100.18 349.04 114.57C363.35 128.97 363.28 152.27 348.89 166.58C334.49 180.9 311.19 180.83 296.88 166.43C282.56 152.04 282.63 128.73 297.03 114.42Z"
       id="b2rAhphNSX" />
    <path
       d="M371.07 175.65C374.71 179.31 374.69 185.23 371.04 188.86C369.71 190.18 372.36 187.54 371.04 188.86C367.38 192.5 361.46 192.48 357.83 188.82C352.71 183.67 343.93 174.84 338.81 169.69C335.17 166.03 335.19 160.12 338.85 156.48C340.17 155.17 337.52 157.8 338.85 156.48C342.5 152.85 348.42 152.86 352.05 156.52C357.17 161.67 365.95 170.5 371.07 175.65Z"
       id="bXlHnhiyO" />
    <path
       d="M75.74 387.26C32.85 344.12 33.06 274.28 76.2 231.39C119.34 188.5 189.18 188.7 232.07 231.84C274.96 274.98 274.76 344.83 231.62 387.72C188.48 430.61 118.63 430.4 75.74 387.26Z"
       id="bo6vAKp1D" />
    <path
       d="M88.99 374.09C53.37 338.26 53.54 280.25 89.37 244.63C125.2 209.01 183.21 209.18 218.83 245.01C254.45 280.84 254.28 338.85 218.45 374.47C182.62 410.09 124.61 409.92 88.99 374.09Z"
       id="cCsB289Ux" />
    <path
       d="M127.82 335.48C113.51 321.09 113.58 297.78 127.98 283.47C142.37 269.16 165.68 269.23 179.99 283.62C194.3 298.02 194.23 321.32 179.84 335.64C165.44 349.95 142.14 349.88 127.82 335.48Z"
       id="a1Fe3bvDU1" />
    <path
       d="M189.06 261.44C192.72 257.8 198.63 257.82 202.27 261.47C203.58 262.8 200.95 260.15 202.27 261.47C205.9 265.13 205.89 271.05 202.23 274.68C197.08 279.8 188.25 288.58 183.1 293.7C179.44 297.34 173.52 297.32 169.89 293.67C168.57 292.34 171.2 294.99 169.89 293.67C166.25 290.01 166.27 284.09 169.93 280.46C175.08 275.34 183.91 266.56 189.06 261.44Z"
       id="e3mNcgX5D" />
  </defs>
  <sodipodi:namedview
     id="base"
     pagecolor="#ffffff"
     bordercolor="#666666"
     borderopacity="1.0"
     inkscape:pageopacity="0.0"
     inkscape:pageshadow="2"
     inkscape:zoom="0.49497475"
     inkscape:cx="-2454.8369"
     inkscape:cy="1997.9407"
     inkscape:document-units="mm"
     inkscape:current-layer="layer1"
     inkscape:document-rotation="0"
     showgrid="false"
     inkscape:window-width="1614"
     inkscape:window-height="1004"
     inkscape:window-x="36"
     inkscape:window-y="25"
     inkscape:window-maximized="0" />
  <metadata
     id="metadata14485">
    <rdf:RDF>
      <cc:Work
         rdf:about="">
        <dc:format>image/svg+xml</dc:format>
        <dc:type
           rdf:resource="http://purl.org/dc/dcmitype/StillImage" />
        <dc:title></dc:title>
      </cc:Work>
    </rdf:RDF>
  </metadata>
  <g
     inkscape:label="Layer 1"
     inkscape:groupmode="layer"
     id="layer1">
    <g
       id="g2500"
       transform="translate(-858.79113,57.426294)"
       inkscape:export-filename="/Users/ivofernandes/git/turingDealApp/assets/images/logo.png"
       inkscape:export-xdpi="96.000023"
       inkscape:export-ydpi="96.000023">
      <rect
         style="clip-rule:evenodd;opacity:0.999;fill:#474747;fill-opacity:1;fill-rule:evenodd;stroke-width:0.279686;stroke-linecap:round;stroke-linejoin:round"
         id="rect16567"
         width="270.93332"
         height="270.93332"
         x="-13.002377"
         y="286.35477"
         ry="48.05307"
         inkscape:export-filename="/Users/ivofernandes/Documents/projects/turingDealApp/turing_deal/assets/logo.png"
         inkscape:export-xdpi="95.900002"
         inkscape:export-ydpi="95.900002" />
      <g
         id="g18007"
         transform="translate(3.837306,-2.1381562)"
         inkscape:export-filename="/Users/ivofernandes/Documents/projects/turingDealApp/turing_deal/assets/logo.png"
         inkscape:export-xdpi="95"
         inkscape:export-ydpi="95">
        <g
           id="g17864"
           transform="matrix(-0.85632736,0,0,-0.85632736,539.94806,689.03787)"
           style="opacity:0.999;fill:#008f42;fill-opacity:1">
          <use
             xlink:href="#lEgpEBdBu"
             opacity="1"
             fill="#bc51b1"
             fill-opacity="1"
             id="use17862"
             x="0"
             y="0"
             width="100%"
             height="100%"
             style="fill:#008f42;fill-opacity:1" />
        </g>
        <use
           xlink:href="#fu3GSRJEW"
           opacity="0.999"
           fill="#474747"
           fill-opacity="1"
           id="use17866"
           x="0"
           y="0"
           width="100%"
           height="100%"
           transform="matrix(-0.81095774,0,0,-0.81095774,517.62628,674.99155)" />
        <g
           id="g17872"
           transform="matrix(-0.81095774,0,0,-0.81095774,517.62478,674.99509)"
           style="opacity:0.999">
          <use
             xlink:href="#b3GQekXkkK"
             opacity="1"
             fill="#747474"
             fill-opacity="1"
             id="use17870"
             x="0"
             y="0"
             width="100%"
             height="100%" />
        </g>
        <g
           id="g17876"
           transform="matrix(-0.81095774,0,0,-0.81095774,514.60556,677.86225)"
           style="opacity:0.999">
          <use
             xlink:href="#b1UAkXH3Q6"
             opacity="1"
             fill="#747474"
             fill-opacity="1"
             id="use17874"
             x="0"
             y="0"
             width="100%"
             height="100%" />
        </g>
      </g>
    </g>
  </g>
</svg>
